<mxfile host="app.diagrams.net" modified="2022-11-24T04:19:11.029Z" agent="5.0 (Windows NT 10.0; Win64; x64) AppleWebKit/537.36 (KHTML, like Gecko) Chrome/107.0.0.0 Safari/537.36" etag="oIRDUi-k1Nt4ASb_x7Vm" version="20.6.0" type="github">
  <diagram name="Page-1" id="90a13364-a465-7bf4-72fc-28e22215d7a0">
    <mxGraphModel dx="1705" dy="729" grid="1" gridSize="10" guides="1" tooltips="1" connect="1" arrows="1" fold="1" page="1" pageScale="1.5" pageWidth="1169" pageHeight="826" background="none" math="0" shadow="0">
      <root>
        <mxCell id="0" style=";html=1;" />
        <mxCell id="1" style=";html=1;" parent="0" />
        <mxCell id="3a17f1ce550125da-13" style="edgeStyle=elbowEdgeStyle;rounded=0;html=1;startArrow=none;startFill=0;jettySize=auto;orthogonalLoop=1;fontSize=18;elbow=vertical;" parent="1" source="3a17f1ce550125da-2" target="3a17f1ce550125da-4" edge="1">
          <mxGeometry relative="1" as="geometry" />
        </mxCell>
        <mxCell id="NsofU65m9kxZg-TXbKdg-16" value="" style="edgeStyle=orthogonalEdgeStyle;rounded=0;orthogonalLoop=1;jettySize=auto;html=1;" edge="1" parent="1" source="3a17f1ce550125da-2" target="NsofU65m9kxZg-TXbKdg-15">
          <mxGeometry relative="1" as="geometry">
            <Array as="points">
              <mxPoint x="1010" y="480" />
              <mxPoint x="1010" y="570" />
            </Array>
          </mxGeometry>
        </mxCell>
        <mxCell id="NsofU65m9kxZg-TXbKdg-18" style="edgeStyle=orthogonalEdgeStyle;rounded=0;orthogonalLoop=1;jettySize=auto;html=1;" edge="1" parent="1" source="3a17f1ce550125da-2" target="NsofU65m9kxZg-TXbKdg-17">
          <mxGeometry relative="1" as="geometry">
            <Array as="points">
              <mxPoint x="980" y="720" />
              <mxPoint x="980" y="780" />
            </Array>
          </mxGeometry>
        </mxCell>
        <mxCell id="3a17f1ce550125da-2" value="Mikrokontroler" style="whiteSpace=wrap;html=1;shadow=1;fontSize=18;fillColor=#f5f5f5;strokeColor=#666666;" parent="1" vertex="1">
          <mxGeometry x="787" y="454" width="183" height="280" as="geometry" />
        </mxCell>
        <mxCell id="NsofU65m9kxZg-TXbKdg-31" style="edgeStyle=orthogonalEdgeStyle;rounded=0;orthogonalLoop=1;jettySize=auto;html=1;" edge="1" parent="1" source="3a17f1ce550125da-4" target="NsofU65m9kxZg-TXbKdg-30">
          <mxGeometry relative="1" as="geometry" />
        </mxCell>
        <mxCell id="3a17f1ce550125da-4" value="Driver Motor 1" style="whiteSpace=wrap;html=1;shadow=1;fontSize=18;fillColor=#f5f5f5;strokeColor=#666666;" parent="1" vertex="1">
          <mxGeometry x="1050" y="444" width="120" height="60" as="geometry" />
        </mxCell>
        <mxCell id="3a17f1ce550125da-20" style="edgeStyle=elbowEdgeStyle;rounded=0;html=1;startArrow=none;startFill=0;jettySize=auto;orthogonalLoop=1;fontSize=18;elbow=vertical;" parent="1" source="3a17f1ce550125da-8" target="3a17f1ce550125da-2" edge="1">
          <mxGeometry relative="1" as="geometry">
            <Array as="points">
              <mxPoint x="760" y="470" />
              <mxPoint x="757" y="514" />
            </Array>
          </mxGeometry>
        </mxCell>
        <mxCell id="3a17f1ce550125da-8" value="DC-DC&lt;br&gt;Stepdown" style="whiteSpace=wrap;html=1;shadow=1;fontSize=18;fillColor=#f5f5f5;strokeColor=#666666;" parent="1" vertex="1">
          <mxGeometry x="558.5" y="444" width="180" height="56" as="geometry" />
        </mxCell>
        <mxCell id="3a17f1ce550125da-21" style="edgeStyle=elbowEdgeStyle;rounded=0;html=1;startArrow=none;startFill=0;jettySize=auto;orthogonalLoop=1;fontSize=18;elbow=vertical;" parent="1" source="3a17f1ce550125da-9" target="3a17f1ce550125da-2" edge="1">
          <mxGeometry relative="1" as="geometry">
            <Array as="points">
              <mxPoint x="760" y="720" />
            </Array>
          </mxGeometry>
        </mxCell>
        <mxCell id="3a17f1ce550125da-9" value="Sensor Tegangan" style="whiteSpace=wrap;html=1;shadow=1;fontSize=18;fillColor=#f5f5f5;strokeColor=#666666;" parent="1" vertex="1">
          <mxGeometry x="597" y="634" width="120" height="60" as="geometry" />
        </mxCell>
        <mxCell id="NsofU65m9kxZg-TXbKdg-27" style="edgeStyle=orthogonalEdgeStyle;rounded=0;orthogonalLoop=1;jettySize=auto;html=1;" edge="1" parent="1" source="3a17f1ce550125da-11">
          <mxGeometry relative="1" as="geometry">
            <mxPoint x="657" y="750" as="targetPoint" />
          </mxGeometry>
        </mxCell>
        <mxCell id="NsofU65m9kxZg-TXbKdg-29" style="edgeStyle=orthogonalEdgeStyle;rounded=0;orthogonalLoop=1;jettySize=auto;html=1;" edge="1" parent="1" source="3a17f1ce550125da-11">
          <mxGeometry relative="1" as="geometry">
            <mxPoint x="657" y="740" as="targetPoint" />
          </mxGeometry>
        </mxCell>
        <mxCell id="3a17f1ce550125da-11" value="Sensor jarak" style="whiteSpace=wrap;html=1;shadow=1;fontSize=18;fillColor=#f5f5f5;strokeColor=#666666;" parent="1" vertex="1">
          <mxGeometry x="597" y="740" width="120" height="60" as="geometry" />
        </mxCell>
        <mxCell id="NsofU65m9kxZg-TXbKdg-6" style="edgeStyle=orthogonalEdgeStyle;rounded=0;orthogonalLoop=1;jettySize=auto;html=1;" edge="1" parent="1" source="NsofU65m9kxZg-TXbKdg-4" target="NsofU65m9kxZg-TXbKdg-5">
          <mxGeometry relative="1" as="geometry" />
        </mxCell>
        <mxCell id="NsofU65m9kxZg-TXbKdg-4" value="PLN" style="whiteSpace=wrap;html=1;shadow=1;fontSize=18;fillColor=#f5f5f5;strokeColor=#666666;" vertex="1" parent="1">
          <mxGeometry x="770" y="220" width="120" height="40" as="geometry" />
        </mxCell>
        <mxCell id="NsofU65m9kxZg-TXbKdg-8" style="edgeStyle=orthogonalEdgeStyle;rounded=0;orthogonalLoop=1;jettySize=auto;html=1;" edge="1" parent="1" source="NsofU65m9kxZg-TXbKdg-5" target="NsofU65m9kxZg-TXbKdg-7">
          <mxGeometry relative="1" as="geometry" />
        </mxCell>
        <mxCell id="NsofU65m9kxZg-TXbKdg-5" value="Modul Charger" style="whiteSpace=wrap;html=1;shadow=1;fontSize=18;fillColor=#f5f5f5;strokeColor=#666666;" vertex="1" parent="1">
          <mxGeometry x="558.5" y="280" width="180" height="40" as="geometry" />
        </mxCell>
        <mxCell id="NsofU65m9kxZg-TXbKdg-9" style="edgeStyle=orthogonalEdgeStyle;rounded=0;orthogonalLoop=1;jettySize=auto;html=1;exitX=0.5;exitY=1;exitDx=0;exitDy=0;entryX=0.5;entryY=0;entryDx=0;entryDy=0;" edge="1" parent="1" source="NsofU65m9kxZg-TXbKdg-7" target="3a17f1ce550125da-8">
          <mxGeometry relative="1" as="geometry" />
        </mxCell>
        <mxCell id="NsofU65m9kxZg-TXbKdg-13" style="edgeStyle=orthogonalEdgeStyle;rounded=0;orthogonalLoop=1;jettySize=auto;html=1;" edge="1" parent="1" source="NsofU65m9kxZg-TXbKdg-7">
          <mxGeometry relative="1" as="geometry">
            <mxPoint x="1010" y="480" as="targetPoint" />
            <Array as="points">
              <mxPoint x="1010" y="384" />
            </Array>
          </mxGeometry>
        </mxCell>
        <mxCell id="NsofU65m9kxZg-TXbKdg-7" value="Baterai" style="whiteSpace=wrap;html=1;shadow=1;fontSize=18;fillColor=#f5f5f5;strokeColor=#666666;" vertex="1" parent="1">
          <mxGeometry x="558.5" y="364" width="180" height="40" as="geometry" />
        </mxCell>
        <mxCell id="NsofU65m9kxZg-TXbKdg-35" style="edgeStyle=orthogonalEdgeStyle;rounded=0;orthogonalLoop=1;jettySize=auto;html=1;" edge="1" parent="1" source="NsofU65m9kxZg-TXbKdg-15" target="NsofU65m9kxZg-TXbKdg-34">
          <mxGeometry relative="1" as="geometry" />
        </mxCell>
        <mxCell id="NsofU65m9kxZg-TXbKdg-15" value="Driver Motor 2" style="whiteSpace=wrap;html=1;fontSize=18;fillColor=#f5f5f5;strokeColor=#666666;shadow=1;" vertex="1" parent="1">
          <mxGeometry x="1050" y="540" width="120" height="60" as="geometry" />
        </mxCell>
        <mxCell id="NsofU65m9kxZg-TXbKdg-24" style="edgeStyle=orthogonalEdgeStyle;rounded=0;orthogonalLoop=1;jettySize=auto;html=1;exitX=0.5;exitY=1;exitDx=0;exitDy=0;" edge="1" parent="1" source="NsofU65m9kxZg-TXbKdg-17" target="NsofU65m9kxZg-TXbKdg-23">
          <mxGeometry relative="1" as="geometry" />
        </mxCell>
        <mxCell id="NsofU65m9kxZg-TXbKdg-17" value="Modul Bluetooth" style="whiteSpace=wrap;html=1;shadow=1;fontSize=18;fillColor=#f5f5f5;strokeColor=#666666;" vertex="1" parent="1">
          <mxGeometry x="1000" y="760" width="183" height="40" as="geometry" />
        </mxCell>
        <mxCell id="NsofU65m9kxZg-TXbKdg-23" value="Smarthphone" style="whiteSpace=wrap;html=1;shadow=1;fontSize=18;fillColor=#f5f5f5;strokeColor=#666666;" vertex="1" parent="1">
          <mxGeometry x="1000" y="830" width="183" height="40" as="geometry" />
        </mxCell>
        <mxCell id="NsofU65m9kxZg-TXbKdg-30" value="Roda" style="whiteSpace=wrap;html=1;shadow=1;fontSize=18;fillColor=#f5f5f5;strokeColor=#666666;" vertex="1" parent="1">
          <mxGeometry x="1230" y="451" width="120" height="46" as="geometry" />
        </mxCell>
        <mxCell id="NsofU65m9kxZg-TXbKdg-34" value="Kipas" style="whiteSpace=wrap;html=1;fontSize=18;fillColor=#f5f5f5;strokeColor=#666666;shadow=1;" vertex="1" parent="1">
          <mxGeometry x="1230" y="540" width="120" height="60" as="geometry" />
        </mxCell>
        <mxCell id="NsofU65m9kxZg-TXbKdg-39" value="Driver Motor 3" style="whiteSpace=wrap;html=1;fontSize=18;fillColor=#f5f5f5;strokeColor=#666666;shadow=1;" vertex="1" parent="1">
          <mxGeometry x="1050" y="634" width="120" height="60" as="geometry" />
        </mxCell>
        <mxCell id="NsofU65m9kxZg-TXbKdg-42" value="" style="edgeStyle=orthogonalEdgeStyle;rounded=0;orthogonalLoop=1;jettySize=auto;html=1;" edge="1" parent="1">
          <mxGeometry relative="1" as="geometry">
            <mxPoint x="969.9999999999998" y="570.0000000000001" as="sourcePoint" />
            <mxPoint x="1050" y="660" as="targetPoint" />
            <Array as="points">
              <mxPoint x="970" y="480" />
              <mxPoint x="1010" y="480" />
              <mxPoint x="1010" y="660" />
            </Array>
          </mxGeometry>
        </mxCell>
        <mxCell id="NsofU65m9kxZg-TXbKdg-43" style="edgeStyle=orthogonalEdgeStyle;rounded=0;orthogonalLoop=1;jettySize=auto;html=1;" edge="1" parent="1" target="NsofU65m9kxZg-TXbKdg-44">
          <mxGeometry relative="1" as="geometry">
            <mxPoint x="1170" y="664" as="sourcePoint" />
          </mxGeometry>
        </mxCell>
        <mxCell id="NsofU65m9kxZg-TXbKdg-44" value="Penyapu" style="whiteSpace=wrap;html=1;fontSize=18;fillColor=#f5f5f5;strokeColor=#666666;shadow=1;" vertex="1" parent="1">
          <mxGeometry x="1230" y="634" width="120" height="60" as="geometry" />
        </mxCell>
        <mxCell id="NsofU65m9kxZg-TXbKdg-45" value="Power" style="rounded=1;whiteSpace=wrap;html=1;" vertex="1" parent="1">
          <mxGeometry x="787" y="454" width="53" height="36" as="geometry" />
        </mxCell>
        <mxCell id="NsofU65m9kxZg-TXbKdg-46" value="Kendali" style="rounded=1;whiteSpace=wrap;html=1;" vertex="1" parent="1">
          <mxGeometry x="917" y="455.5" width="53" height="34.5" as="geometry" />
        </mxCell>
        <mxCell id="NsofU65m9kxZg-TXbKdg-47" value="Sensor" style="rounded=1;whiteSpace=wrap;html=1;" vertex="1" parent="1">
          <mxGeometry x="787" y="698" width="53" height="36" as="geometry" />
        </mxCell>
        <mxCell id="NsofU65m9kxZg-TXbKdg-48" value="IoT" style="rounded=1;whiteSpace=wrap;html=1;" vertex="1" parent="1">
          <mxGeometry x="917" y="698" width="53" height="36" as="geometry" />
        </mxCell>
      </root>
    </mxGraphModel>
  </diagram>
</mxfile>
